<svg width="22" height="21" viewBox="0 0 22 21" fill="none" xmlns="http://www.w3.org/2000/svg">
<path d="M17.9583 2.16671H15.875V1.12504C15.875 0.848774 15.7653 0.583822 15.5699 0.388471C15.3746 0.193121 15.1096 0.083374 14.8333 0.083374C14.5571 0.083374 14.2921 0.193121 14.0968 0.388471C13.9014 0.583822 13.7917 0.848774 13.7917 1.12504V2.16671H7.54167V1.12504C7.54167 0.848774 7.43192 0.583822 7.23657 0.388471C7.04122 0.193121 6.77627 0.083374 6.5 0.083374C6.22373 0.083374 5.95878 0.193121 5.76343 0.388471C5.56808 0.583822 5.45833 0.848774 5.45833 1.12504V2.16671H3.375C2.5462 2.16671 1.75134 2.49595 1.16529 3.082C0.57924 3.66805 0.25 4.46291 0.25 5.29171V17.7917C0.25 18.6205 0.57924 19.4154 1.16529 20.0014C1.75134 20.5875 2.5462 20.9167 3.375 20.9167H17.9583C18.7871 20.9167 19.582 20.5875 20.168 20.0014C20.7541 19.4154 21.0833 18.6205 21.0833 17.7917V5.29171C21.0833 4.46291 20.7541 3.66805 20.168 3.082C19.582 2.49595 18.7871 2.16671 17.9583 2.16671V2.16671ZM19 17.7917C19 18.068 18.8903 18.3329 18.6949 18.5283C18.4996 18.7236 18.2346 18.8334 17.9583 18.8334H3.375C3.09873 18.8334 2.83378 18.7236 2.63843 18.5283C2.44308 18.3329 2.33333 18.068 2.33333 17.7917V10.5H19V17.7917ZM19 8.41671H2.33333V5.29171C2.33333 5.01544 2.44308 4.75049 2.63843 4.55514C2.83378 4.35979 3.09873 4.25004 3.375 4.25004H5.45833V5.29171C5.45833 5.56797 5.56808 5.83293 5.76343 6.02828C5.95878 6.22363 6.22373 6.33337 6.5 6.33337C6.77627 6.33337 7.04122 6.22363 7.23657 6.02828C7.43192 5.83293 7.54167 5.56797 7.54167 5.29171V4.25004H13.7917V5.29171C13.7917 5.56797 13.9014 5.83293 14.0968 6.02828C14.2921 6.22363 14.5571 6.33337 14.8333 6.33337C15.1096 6.33337 15.3746 6.22363 15.5699 6.02828C15.7653 5.83293 15.875 5.56797 15.875 5.29171V4.25004H17.9583C18.2346 4.25004 18.4996 4.35979 18.6949 4.55514C18.8903 4.75049 19 5.01544 19 5.29171V8.41671Z" fill="#09263D"/>
</svg>
