<svg width="24" height="23" viewBox="0 0 24 23" fill="none" xmlns="http://www.w3.org/2000/svg">
<path d="M13.5625 21.6562V14.2344C13.5625 13.9236 13.686 13.6255 13.9057 13.4057C14.1255 13.186 14.4236 13.0625 14.7344 13.0625H17.8594C18.1702 13.0625 18.4682 13.186 18.688 13.4057C18.9078 13.6255 19.0312 13.9236 19.0312 14.2344V21.6562M21.375 20.875V10.7188V20.875ZM2.625 10.7188V20.875V10.7188ZM18.1753 1.34375H5.82471C4.76074 1.34375 3.7998 1.92969 3.38672 2.83105L1.27246 7.44727C0.560547 9.00049 1.74268 10.7603 3.57666 10.8164H3.67432C5.20752 10.8164 6.4502 9.58691 6.4502 8.26611C6.4502 9.58447 7.69336 10.8164 9.22656 10.8164C10.7598 10.8164 12 9.6748 12 8.26611C12 9.58447 13.2427 10.8164 14.7759 10.8164C16.3091 10.8164 17.5522 9.6748 17.5522 8.26611C17.5522 9.6748 18.7949 10.8164 20.3281 10.8164H20.4233C22.2573 10.7593 23.4395 8.99951 22.7275 7.44727L20.6133 2.83105C20.2002 1.92969 19.2393 1.34375 18.1753 1.34375ZM1.0625 21.6562H22.9375H1.0625ZM6.14062 13.0625H10.0469C10.3577 13.0625 10.6557 13.186 10.8755 13.4057C11.0953 13.6255 11.2187 13.9236 11.2188 14.2344V18.5312H4.96875V14.2344C4.96875 13.9236 5.09221 13.6255 5.31198 13.4057C5.53175 13.186 5.82982 13.0625 6.14062 13.0625Z" stroke="#1C71B7" stroke-width="1.5" stroke-linecap="round" stroke-linejoin="round"/>
</svg>
