<svg width="69" height="22" viewBox="0 0 69 22" fill="none" xmlns="http://www.w3.org/2000/svg">
<path d="M17.2151 4.60184H18.9229C19.1815 4.60184 19.3368 4.73774 19.3885 5.00922L21.0575 12.3055H21.1934L22.8232 5.00922C22.8749 4.73774 23.0368 4.60184 23.3083 4.60184H25.0161C25.2879 4.60184 25.3849 4.73774 25.3073 5.00922L22.8624 14.0712C22.8107 14.3558 22.636 14.498 22.3385 14.498H19.8742C19.6027 14.498 19.428 14.3558 19.3503 14.0712L16.9248 5.00922C16.8472 4.73774 16.9442 4.60184 17.216 4.60184H17.2151Z" fill="#1C71B7"/>
<path d="M27.824 14.496H26.1748C25.903 14.496 25.7671 14.3601 25.7671 14.0886V1.26216C25.7671 0.990359 25.903 0.854462 26.1748 0.854462H27.824C28.0955 0.854462 28.2314 0.990359 28.2314 1.26216V5.64754H28.3091C28.5937 4.94894 29.2275 4.5998 30.2107 4.5998H30.8317C32.8626 4.5998 33.8781 5.65411 33.8781 7.76273V14.0886C33.8781 14.3601 33.7359 14.496 33.4513 14.496H31.8215C31.5497 14.496 31.4138 14.3601 31.4138 14.0886V7.87921C31.4138 7.46525 31.3264 7.17091 31.1517 6.99619C30.9773 6.82177 30.6826 6.73409 30.2686 6.73409H29.5701C28.6773 6.73409 28.2311 7.22571 28.2311 8.20894V14.0886C28.2311 14.3601 28.0952 14.496 27.8237 14.496H27.824Z" fill="#1C71B7"/>
<path d="M35.076 2.93051V1.24243C35.076 0.983783 35.2053 0.854462 35.4639 0.854462H37.152C37.4107 0.854462 37.54 0.977521 37.54 1.22333V2.93082C37.54 3.18947 37.4107 3.31879 37.152 3.31879H35.4639C35.2053 3.31879 35.076 3.18947 35.076 2.93082V2.93051ZM34.3191 17.7168H33.019C32.7472 17.7168 32.6113 17.5809 32.6113 17.3091V15.9896C32.6113 15.7178 32.7472 15.5822 33.019 15.5822H33.5623C34.1444 15.5822 34.5424 15.4785 34.7556 15.2716C34.9689 15.0646 35.0757 14.67 35.0757 14.0879V5.00656C35.0757 4.73508 35.2116 4.59918 35.4834 4.59918H37.1326C37.4041 4.59918 37.54 4.73508 37.54 5.00656V14.5342C37.54 15.5431 37.2553 16.3259 36.6861 16.882C36.1168 17.4384 35.3277 17.7165 34.3188 17.7165L34.3191 17.7168Z" fill="#1C71B7"/>
<path d="M43.5439 14.4979H41.817C40.7952 14.4979 40.0062 14.2261 39.4497 13.6828C38.8936 13.1396 38.6152 12.3567 38.6152 11.335V7.7647C38.6152 6.74264 38.8933 5.96013 39.4497 5.41685C40.0062 4.87357 40.7952 4.60178 41.817 4.60178H43.5439C44.5528 4.60178 45.3387 4.8767 45.9018 5.42656C46.4644 5.97642 46.746 6.75579 46.746 7.7647V11.335C46.746 12.3439 46.4644 13.1236 45.9018 13.6731C45.3391 14.223 44.5531 14.4979 43.5439 14.4979ZM42.1855 12.3827H43.1753C43.5893 12.3827 43.8836 12.2985 44.0581 12.1304C44.2328 11.9622 44.3201 11.671 44.3201 11.257V7.84173C44.3201 7.42777 44.2328 7.13656 44.0581 6.96841C43.8836 6.80026 43.589 6.71603 43.1753 6.71603H42.1855C41.7716 6.71603 41.4804 6.80026 41.3122 6.96841C41.1441 7.13656 41.0598 7.42777 41.0598 7.84173V11.257C41.0598 11.671 41.1441 11.9622 41.3122 12.1304C41.4804 12.2985 41.7716 12.3827 42.1855 12.3827Z" fill="#1C71B7"/>
<path d="M50.4001 12.3617H52.3793C52.7933 12.3617 53.0876 12.2743 53.2621 12.0996C53.4368 11.9248 53.5241 11.6305 53.5241 11.2165V7.84007C53.5241 7.42611 53.4368 7.13177 53.2621 6.95704C53.0876 6.78263 52.7933 6.69495 52.3793 6.69495H51.5254C50.6327 6.69495 50.1865 7.18657 50.1865 8.16979V12.1478C50.1865 12.2903 50.2576 12.3613 50.4001 12.3613V12.3617ZM47.7222 14.0886V1.26216C47.7222 0.99036 47.8581 0.854462 48.1299 0.854462H49.7791C50.0506 0.854462 50.1865 0.99036 50.1865 1.26216V5.62812H50.2642C50.4063 5.27898 50.6587 5.01376 51.021 4.83246C51.3833 4.65147 51.765 4.56066 52.1658 4.56066H52.7867C53.8088 4.56066 54.5979 4.83246 55.154 5.37574C55.7101 5.91902 55.9885 6.70184 55.9885 7.72358V11.3327C55.9885 12.3548 55.7104 13.1373 55.154 13.6806C54.5979 14.2238 53.8088 14.4956 52.7867 14.4956H48.1299C47.8581 14.4956 47.7222 14.3597 47.7222 14.0883V14.0886Z" fill="#1C71B7"/>
<path d="M60.7224 14.4983H57.0357C56.777 14.4983 56.6477 14.3624 56.6477 14.0909V12.849C56.6477 12.7069 56.6737 12.6064 56.7253 12.5481C56.777 12.4899 56.8807 12.4608 57.0357 12.4608H60.2762C60.91 12.4608 61.2272 12.2666 61.2272 11.8787V11.7816C61.2272 11.471 60.962 11.1735 60.4315 10.8889L58.5105 9.82171C57.8507 9.48541 57.3657 9.12312 57.0551 8.73515C56.7444 8.34718 56.5894 7.84899 56.5894 7.24089C56.5894 6.33532 56.8287 5.66898 57.3075 5.24219C57.7862 4.81539 58.5365 4.60184 59.5585 4.60184H62.7991C63.0578 4.60184 63.1871 4.73774 63.1871 5.00922V6.27051C63.1871 6.41267 63.1611 6.51287 63.1094 6.57111C63.0578 6.62935 62.9541 6.65847 62.7991 6.65847H60.1018C59.468 6.65847 59.1508 6.82005 59.1508 7.14351V7.24058C59.1508 7.52522 59.4289 7.81611 59.9853 8.1139L61.9452 9.27812C62.6178 9.64041 63.09 10.0121 63.3618 10.3938C63.6336 10.7755 63.7695 11.2768 63.7695 11.8978C63.7695 13.6312 62.754 14.498 60.7231 14.498L60.7224 14.4983Z" fill="#1C71B7"/>
<path fill-rule="evenodd" clip-rule="evenodd" d="M7.9784 16.4491C7.93469 16.4491 7.88644 16.4488 7.84046 16.4355C7.75786 16.4111 7.71216 16.3685 7.67327 16.2901C7.66646 16.2765 7.66021 16.2669 7.65624 16.2547C7.6236 16.1559 7.63552 16.1644 7.62672 16.1266C7.62019 16.0983 7.61821 16.1034 7.61849 16.0829C7.61962 16.0137 7.60543 15.9339 7.60685 15.8701L7.61026 15.5218C7.61338 15.3336 7.60856 15.1451 7.60912 14.9569C7.60941 14.8522 7.60714 14.746 7.61139 14.6416L7.61849 14.5085C7.61849 14.4855 7.61054 14.4372 7.63013 14.4017C7.95939 14.3963 8.28921 14.4083 8.61847 14.4C8.61478 14.41 8.62557 14.4676 8.62557 14.4874V14.9652C8.62557 14.9893 8.62869 15.0069 8.62983 15.0441C8.63096 15.0847 8.60882 15.1718 8.73655 15.0847L8.89238 14.9623C8.99854 14.8627 9.09561 14.7597 9.19865 14.6569C9.21057 14.645 9.22107 14.6365 9.23072 14.6231L9.28096 14.5553C9.29572 14.5391 9.29203 14.5385 9.30651 14.5201C9.31872 14.5045 9.31304 14.5181 9.3278 14.4948L9.37208 14.419C9.37378 14.4156 9.38031 14.4037 9.38059 14.4031C9.38428 14.3975 9.39166 14.3884 9.39479 14.3836L9.49669 14.1886C9.50918 14.1693 9.53415 14.094 9.55345 14.0611C9.56197 14.0466 9.56992 14.0307 9.57474 14.0137L9.63776 13.8619C9.64712 13.8451 9.64996 13.8261 9.6545 13.8162C9.67011 13.7815 9.68658 13.7404 9.68942 13.7035C9.69055 13.6904 9.69651 13.6873 9.69793 13.6666C9.69907 13.6524 9.68913 13.6223 9.69197 13.6152C9.63889 13.6152 9.60738 13.6044 9.54607 13.6058L9.23754 13.6135C9.20745 13.6146 9.17736 13.6146 9.14784 13.6132C9.02011 13.6075 8.71214 13.6143 8.539 13.6152C8.52651 13.6152 8.49614 13.6124 8.49074 13.6109C8.47286 13.6064 8.46435 13.6087 8.44334 13.607L8.33832 13.599C8.3298 13.5979 8.28268 13.5942 8.27389 13.5939L8.16205 13.5854C8.11862 13.582 8.04312 13.5655 7.99941 13.5562C7.92561 13.5408 7.83506 13.5133 7.77347 13.4676C7.76382 13.4605 7.736 13.4318 7.72919 13.4227C7.7167 13.406 7.7289 13.4159 7.71443 13.3998L7.66078 13.3268C7.65255 13.3126 7.64858 13.291 7.64091 13.2754C7.63041 13.2536 7.61139 13.182 7.60969 13.1599L7.60089 13.0872C7.59607 13.0248 7.59635 12.7923 7.60174 12.7554C7.60657 12.7242 7.60969 12.6686 7.60969 12.6467L7.61168 12.3535C7.61224 12.3393 7.61225 12.3254 7.61225 12.3112L7.61707 11.483C7.62076 11.3828 7.6165 10.9936 7.61225 10.8852C7.60856 10.7904 7.61225 10.689 7.61225 10.5934C7.61225 10.5795 7.61281 10.5647 7.61225 10.5508L7.61963 10.2553C7.61991 10.2431 7.61906 10.234 7.61934 10.223L7.64545 10.1004C7.66192 10.0535 7.68832 9.99704 7.7255 9.96014L7.79561 9.91245L7.85607 9.894C7.91482 9.88719 7.97386 9.87271 8.03035 9.88776C8.04 9.89031 8.04028 9.88946 8.05306 9.89059C8.06469 9.89173 8.08201 9.89372 8.08683 9.89457C8.08712 9.89457 8.0962 9.89656 8.09648 9.89656L8.19498 9.90592C8.22336 9.90961 8.23727 9.91643 8.26253 9.92182C8.35251 9.94055 8.37493 9.94282 8.46066 9.9854C8.56085 10.0351 8.54751 10.0527 8.58697 10.1043C8.61791 10.1449 8.62926 10.2389 8.62926 10.2874L8.63408 11.6521C8.63834 11.722 8.63522 11.8494 8.63579 11.9292C8.63607 11.9743 8.62841 12.0095 8.62699 12.0538C8.62614 12.0822 8.62699 12.1114 8.62699 12.1403C8.62699 12.2377 8.60513 12.3379 8.6145 12.4483C8.62018 12.5144 8.6162 12.4986 8.63607 12.5587C8.64004 12.5706 8.64146 12.5689 8.64544 12.5806C8.66985 12.6473 8.7374 12.674 8.81063 12.6791C8.90232 12.6856 8.96817 12.6706 8.99939 12.6708C9.01784 12.6711 9.04197 12.6725 9.06326 12.6669L9.15352 12.6581C9.2188 12.6547 9.31503 12.6643 9.38315 12.664L9.48051 12.6686C9.54948 12.6686 9.58042 12.6754 9.64655 12.6515C9.6985 12.6331 9.6897 12.6359 9.6545 12.5335C9.64939 12.5187 9.6545 12.5204 9.65166 12.5074L9.63634 12.4727C9.62328 12.4517 9.61931 12.4196 9.61306 12.3978C9.60256 12.3617 9.56339 12.263 9.54437 12.2332C9.53472 12.2184 9.4612 12.0484 9.43708 12.0126L9.38457 11.9255C9.37321 11.9062 9.36101 11.8889 9.36016 11.8693C9.35874 11.8295 9.38145 11.7881 9.40245 11.7611L9.46007 11.6975C9.46035 11.6973 9.46121 11.6961 9.46149 11.6958L9.54494 11.6033C9.54522 11.603 9.54607 11.6022 9.54636 11.6016L9.58808 11.5559C9.60597 11.5355 9.58723 11.5511 9.60199 11.5323L9.71326 11.4092C9.72433 11.3947 9.71212 11.4043 9.72859 11.3865C9.73824 11.3762 9.74618 11.3708 9.75442 11.3601L9.89322 11.2028C9.89918 11.1949 9.89691 11.196 9.89889 11.194L9.99625 11.0966C9.9971 11.0961 10.011 11.0876 10.0127 11.0864C10.0246 11.1043 10.0385 11.1111 10.049 11.1296L10.0658 11.1511C10.0837 11.171 10.0698 11.1597 10.0806 11.1747C10.0868 11.1835 10.0936 11.1872 10.1004 11.196C10.1098 11.2085 10.0993 11.1997 10.1132 11.2164C10.1211 11.2264 10.1257 11.2292 10.1336 11.2389C10.1467 11.255 10.147 11.2655 10.1603 11.2823C10.1671 11.2911 10.1725 11.2962 10.1779 11.3047L10.1961 11.3362C10.2006 11.3422 10.202 11.3433 10.2069 11.349C10.2225 11.368 10.2509 11.4265 10.2611 11.4407L10.3292 11.5488C10.3474 11.58 10.3792 11.6584 10.3973 11.6765C10.3976 11.6771 10.4027 11.6814 10.403 11.6819C10.4101 11.693 10.4112 11.7149 10.4189 11.7268C10.439 11.7583 10.4433 11.7929 10.4632 11.8264C10.4742 11.8454 10.468 11.8179 10.472 11.838L10.5182 11.9479C10.5185 11.9485 10.5194 11.9553 10.5202 11.9578L10.5628 12.0705C10.5682 12.085 10.5639 12.0841 10.5679 12.0915C10.5747 12.1037 10.5744 12.0827 10.5776 12.1159L10.5798 12.1301C10.5798 12.1304 10.5807 12.1315 10.581 12.1318C10.5926 12.1534 10.6008 12.1872 10.604 12.2079L10.6366 12.3132C10.6426 12.3314 10.6409 12.3277 10.6417 12.3399C10.6437 12.37 10.6502 12.3507 10.6516 12.3813C10.6528 12.4086 10.6499 12.3816 10.659 12.4052C10.6692 12.4324 10.6857 12.5335 10.6905 12.5704C10.6962 12.6146 10.7064 12.6405 10.7078 12.6828C10.7078 12.6893 10.707 12.6958 10.709 12.7072L10.7169 12.7339C10.7198 12.7506 10.7164 12.7594 10.7235 12.7844C10.7323 12.8153 10.7215 12.838 10.7314 12.8766C10.7416 12.9155 10.7331 12.9362 10.7368 12.9686L10.745 13.2678C10.7436 13.3109 10.7362 13.3617 10.7362 13.389C10.7362 13.4313 10.7246 13.5581 10.7135 13.6092L10.6973 13.7387C10.6942 13.7534 10.69 13.7585 10.6891 13.7705C10.6883 13.7798 10.6908 13.7821 10.6877 13.7915C10.6772 13.8252 10.6738 13.8729 10.667 13.8871C10.6565 13.9087 10.6644 13.8928 10.6602 13.9112C10.6585 13.9181 10.6534 13.9252 10.6516 13.9368C10.6502 13.9456 10.6531 13.9498 10.6508 13.9584C10.6491 13.9655 10.6443 13.9714 10.6423 13.9839C10.6323 14.0478 10.575 14.1993 10.5568 14.2695C10.5469 14.3086 10.5302 14.335 10.5197 14.3699C10.5174 14.3779 10.5151 14.3827 10.5111 14.3955L10.3877 14.6702L10.2452 14.9237C10.2242 14.9538 10.1867 15.0219 10.1694 15.0412L10.1132 15.121C10.1044 15.1332 10.1047 15.1363 10.0967 15.1471C10.0894 15.1573 10.082 15.1616 10.0743 15.1718C10.0618 15.188 10.0735 15.178 10.0618 15.1922C10.0544 15.2007 10.0476 15.2044 10.0422 15.2135C10.034 15.2269 10.0468 15.2161 10.0292 15.2345C10.0156 15.2487 10.0187 15.2428 10.0107 15.2581C10.0019 15.276 9.98433 15.2853 9.97014 15.3029L9.90854 15.3787C9.90798 15.3793 9.90599 15.381 9.90542 15.3816L9.82367 15.4766C9.76946 15.5402 9.7019 15.5902 9.64315 15.6489L9.59859 15.6841C9.58326 15.6969 9.57077 15.7151 9.55544 15.7261C9.54153 15.7361 9.54409 15.7298 9.52961 15.7429C9.51968 15.7517 9.51627 15.7577 9.5052 15.7659L9.34937 15.8823C9.3488 15.8825 9.34767 15.8834 9.3471 15.884C9.34682 15.8842 9.34568 15.8851 9.34511 15.8854L9.20887 15.9779C9.19127 15.9915 9.17083 15.9986 9.15125 16.01L8.93666 16.1252C8.88074 16.1553 8.79644 16.2036 8.74336 16.2212C8.72548 16.2271 8.71668 16.2328 8.69284 16.2433L8.48507 16.3228C8.45753 16.3316 8.44249 16.3367 8.42489 16.3427C8.39367 16.3534 8.42319 16.3452 8.40559 16.3515C8.40076 16.3532 8.38345 16.3563 8.3809 16.3571L8.32725 16.3753C8.25118 16.3969 8.16886 16.4238 8.09648 16.4355C8.05703 16.4417 8.01247 16.4477 7.97982 16.4477L7.9784 16.4491Z" fill="#1C71B7"/>
<path fill-rule="evenodd" clip-rule="evenodd" d="M3.74135 13.1483C3.74135 13.0955 3.73453 13.0396 3.74589 12.9871C3.75497 12.9439 3.7422 12.928 3.75469 12.884C3.76178 12.8593 3.75469 12.8539 3.75894 12.8312C3.76377 12.8054 3.7649 12.8173 3.76661 12.7986C3.76774 12.785 3.76718 12.7821 3.76718 12.7728C3.76718 12.7327 3.77654 12.6973 3.78477 12.6612C3.78761 12.649 3.78591 12.6467 3.78648 12.6345C3.78761 12.6095 3.78903 12.628 3.79471 12.6019C3.79641 12.5934 3.79499 12.5868 3.79528 12.5778C3.79528 12.557 3.79584 12.5729 3.80266 12.5514C3.80748 12.536 3.80294 12.5394 3.80635 12.5244L3.83274 12.4228C3.83473 12.4117 3.84012 12.3765 3.84325 12.3632L3.86028 12.3132C3.8651 12.2962 3.86936 12.2698 3.87589 12.2519L3.98999 11.9468C3.99822 11.9295 3.98999 11.9388 3.99652 11.9235C4.00674 11.8991 4.02689 11.8716 4.03115 11.8432C4.03456 11.821 4.02888 11.8443 4.03853 11.8256C4.04222 11.8182 4.04846 11.8009 4.05074 11.7961L4.10864 11.6902C4.12085 11.6652 4.13702 11.6181 4.15122 11.5991C4.15519 11.594 4.15746 11.5914 4.1603 11.5869C4.16229 11.5835 4.16938 11.5684 4.17194 11.5636C4.18783 11.5309 4.21253 11.4872 4.23552 11.4574L4.29796 11.3586C4.30932 11.3408 4.32833 11.3271 4.3306 11.3033C4.35218 11.3016 4.35076 11.2914 4.36637 11.2692C4.37914 11.2508 4.36211 11.2715 4.37517 11.2528C4.38198 11.2431 4.38397 11.2428 4.38936 11.2343C4.39277 11.2289 4.38879 11.2338 4.39305 11.2278C4.41008 11.2042 4.43506 11.1852 4.45436 11.1631C4.46997 11.1446 4.46004 11.1478 4.48019 11.1282L4.55286 11.0518C4.5608 11.0487 4.55285 11.0495 4.56648 11.0493C4.57216 11.0754 4.56535 11.06 4.58209 11.0856L4.661 11.211C4.66128 11.2116 4.66185 11.2128 4.66214 11.2133C4.67037 11.2269 4.67775 11.2335 4.68371 11.246C4.7067 11.2939 4.74899 11.3362 4.77567 11.3822L4.89687 11.54C4.90198 11.5483 4.89517 11.5417 4.90681 11.5562L5.01921 11.6845C5.03794 11.7112 5.07172 11.737 5.09471 11.7643C5.09784 11.768 5.09642 11.766 5.10039 11.7719L5.10947 11.785C5.12508 11.8012 5.14921 11.8332 5.15262 11.8579C5.15574 11.8821 5.13956 11.9275 5.11884 11.9496L5.11572 11.9527C5.11515 11.9533 5.11316 11.955 5.1126 11.9556C5.10124 11.9672 5.11146 11.9559 5.10323 11.9686L4.98912 12.1494C4.9508 12.2116 4.85543 12.4373 4.84294 12.4886L4.75921 12.8656C4.74729 12.9258 4.75126 12.9473 4.7453 13.0211C4.74388 13.0384 4.73877 13.058 4.73849 13.0677V13.3189C4.73906 13.3305 4.74417 13.3487 4.74672 13.3683C4.75013 13.3961 4.74445 13.4174 4.75467 13.4599C4.75949 13.4812 4.75637 13.4764 4.75779 13.4934L4.77482 13.5701C4.77993 13.586 4.77312 13.5885 4.7788 13.6058L4.80775 13.7333C4.81655 13.7534 4.81342 13.7617 4.82449 13.7906C4.83642 13.821 4.82648 13.8179 4.83812 13.8417C4.85572 13.8766 4.86508 13.9354 4.88495 13.9672C4.89091 13.9768 4.88495 13.9618 4.8912 13.9794C4.90227 14.0109 4.9193 14.0631 4.93292 14.087L5.13161 14.4315C5.1319 14.4318 5.13303 14.433 5.13332 14.4332C5.14439 14.4472 5.1407 14.4528 5.15177 14.4653C5.17618 14.4926 5.19122 14.5229 5.21591 14.5448L5.22329 14.5519C5.22982 14.5584 5.22471 14.5505 5.23096 14.5618C5.24742 14.5913 5.29568 14.6311 5.31782 14.6666C5.33201 14.689 5.37458 14.7296 5.39275 14.7557L5.47421 14.8539C5.48103 14.8604 5.48443 14.8636 5.48897 14.8706C5.49323 14.8772 5.48784 14.8695 5.49266 14.8772L5.66212 15.0747C5.6624 15.075 5.66325 15.0759 5.66382 15.0764L5.69079 15.1023C5.69277 15.1045 5.68852 15.1014 5.69873 15.1091C5.71889 15.1244 5.72087 15.1343 5.73734 15.15C5.73762 15.1502 5.73876 15.1511 5.73904 15.1514L5.76459 15.1755C5.76771 15.1789 5.75948 15.1718 5.76969 15.1809C5.76998 15.1809 5.77708 15.1863 5.77963 15.188C5.80234 15.2059 5.81852 15.2348 5.84378 15.2484L5.87784 15.2734C5.8821 15.2765 5.89629 15.2961 5.90708 15.2907C5.92297 15.2831 5.91304 15.2408 5.91332 15.2286C5.9136 15.1656 5.92098 15.0322 5.91389 14.9828L5.91332 14.6779C5.91332 14.5729 5.91758 14.4673 5.91332 14.3626C5.91332 14.2922 5.91758 14.2138 5.91559 14.1497C5.9102 13.9774 5.91559 13.8179 5.91559 13.6461C5.91559 13.5354 5.91559 13.4287 5.91559 13.3166L5.91928 13.2559C5.92042 13.2502 5.92042 13.2354 5.92042 13.2297C5.92013 13.2147 5.91417 13.1991 5.91871 13.1798C5.92183 13.1659 5.9207 13.1437 5.9207 13.1253V11.5278C5.9207 11.5111 5.91956 11.4986 5.91928 11.4852C5.91871 11.458 5.91673 11.464 5.91559 11.4393C5.9119 11.3493 5.91531 11.2599 5.91531 11.1702L5.91275 10.9885C5.90622 10.951 5.90764 10.6402 5.90537 10.5715C5.90055 10.4279 5.87046 10.2236 5.93234 10.097C5.94767 10.066 5.94681 10.0961 5.95277 10.074C5.95703 10.0581 5.94596 10.0754 5.9576 10.0581C5.96924 10.0405 5.98598 10.0314 6.00131 10.0178L6.00443 10.0146C6.00472 10.0144 6.00557 10.0132 6.00585 10.0132C6.00614 10.0129 6.00699 10.0118 6.00727 10.0115L6.10662 9.95249C6.12336 9.95078 6.09157 9.95589 6.11428 9.95277C6.13756 9.94965 6.17105 9.93318 6.19688 9.92609L6.54062 9.87499C6.58206 9.87216 6.63826 9.87954 6.69673 9.89231C6.75605 9.90537 6.81396 9.961 6.84348 10.0107L6.88463 10.1086C6.90308 10.1994 6.90138 10.2045 6.9045 10.2931C6.90677 10.3604 6.91302 10.401 6.91274 10.4668L6.93487 13.511C6.93431 13.8338 6.93686 14.1582 6.93147 14.4806L6.91586 16.1738C6.91415 16.1814 6.91472 16.1954 6.9133 16.2027C6.90876 16.2223 6.90706 16.2152 6.9045 16.2303C6.90053 16.2524 6.89003 16.2615 6.88776 16.2876C6.87129 16.2893 6.87016 16.306 6.85994 16.3242C6.8466 16.3483 6.82134 16.3736 6.79806 16.3904C6.78671 16.3986 6.79494 16.3921 6.78841 16.3983L6.7606 16.4261C6.63116 16.5133 6.55055 16.4693 6.47902 16.4891C6.46057 16.4942 6.44837 16.4948 6.40778 16.4948C6.39841 16.5118 6.41175 16.4979 6.38791 16.4968C6.36548 16.4957 6.38308 16.503 6.35952 16.4985C6.34278 16.4954 6.34107 16.4996 6.33313 16.4996C6.30474 16.4993 6.36321 16.5059 6.32149 16.4957C6.31922 16.4951 6.29935 16.4928 6.29935 16.4928C6.27352 16.4908 6.2352 16.4874 6.20369 16.4781C6.20171 16.4775 6.19177 16.4749 6.18496 16.4727C6.1614 16.4653 6.15714 16.4661 6.14522 16.4636C6.135 16.4616 6.12989 16.4554 6.1174 16.4517C6.04758 16.4307 5.97576 16.4128 5.90935 16.3852C5.89515 16.3793 5.88408 16.3713 5.86876 16.3651C5.8276 16.3481 5.77878 16.3299 5.73819 16.3078C5.71576 16.2953 5.68 16.2805 5.6678 16.2731C5.65587 16.266 5.65162 16.2609 5.63373 16.2524C5.61841 16.245 5.60507 16.2388 5.59286 16.2322C5.57441 16.2223 5.57867 16.2203 5.55851 16.2101L5.32633 16.0744L5.05696 15.8885C5.02489 15.8641 4.99849 15.8283 4.96784 15.8031C4.94115 15.7812 4.88893 15.7264 4.86594 15.7117L4.84692 15.6944C4.84663 15.6941 4.84578 15.6929 4.8455 15.6927L4.84294 15.6887C4.84238 15.6876 4.84408 15.6884 4.8384 15.6822L4.77482 15.6146C4.77255 15.6115 4.77255 15.6112 4.76886 15.6067L4.75978 15.5964C4.75949 15.5959 4.75864 15.595 4.75836 15.5945L4.71266 15.5402C4.6874 15.505 4.64993 15.4713 4.62495 15.4358L4.62126 15.4307C4.62098 15.4304 4.62013 15.4293 4.62013 15.429C4.61956 15.4281 4.61814 15.4258 4.61757 15.425L4.59742 15.404C4.5889 15.3836 4.57869 15.3739 4.56733 15.3589L4.46004 15.2098C4.4484 15.1945 4.43137 15.1826 4.42172 15.1661L4.31641 15.014C4.3113 15.0052 4.31812 15.0154 4.31272 15.0075L4.11063 14.6623C4.09757 14.6265 4.06294 14.5709 4.04591 14.5323C4.03938 14.5178 4.03484 14.5056 4.03115 14.4982L3.97325 14.3736C3.96274 14.3529 3.97325 14.3646 3.96416 14.3455C3.9494 14.314 3.94259 14.2771 3.92755 14.2442C3.90825 14.2019 3.88838 14.1258 3.8739 14.079C3.86936 14.0651 3.86624 14.0577 3.86453 14.0467C3.86311 14.0387 3.85659 14.0211 3.85432 14.0106C3.84835 13.9834 3.83643 13.9544 3.83643 13.9408L3.79045 13.7327C3.78733 13.714 3.79045 13.7182 3.78619 13.6975L3.77058 13.5925C3.77001 13.5352 3.75156 13.4631 3.75185 13.3881C3.75185 13.3739 3.74702 13.3271 3.74702 13.3152L3.7439 13.1735C3.74276 13.154 3.74475 13.1633 3.74475 13.1494L3.74135 13.1483Z" fill="#1C71B7"/>
<path fill-rule="evenodd" clip-rule="evenodd" d="M8.39914 0.795593H6.32964C6.2811 0.832493 5.84568 0.870243 5.56581 1.25031C5.51046 1.32553 5.4747 1.33802 5.49939 1.4507C5.51898 1.53983 5.52891 1.62669 5.54452 1.70985C5.70546 2.5716 5.83632 3.4308 6.00322 4.30703C6.03274 4.46201 6.09206 4.66978 6.0316 4.82731C5.97483 4.97463 5.87435 5.07085 5.70575 5.11683C5.51926 5.16764 5.34044 5.06262 5.26295 4.97321C5.14771 4.8398 5.15736 4.70015 5.11649 4.50174C4.97599 3.81768 4.87692 3.10892 4.75004 2.41918C4.73557 2.34055 4.69753 1.94516 4.63935 1.93807C4.61635 1.93551 4.28653 2.12285 4.24225 2.14896C3.96181 2.31473 3.76965 2.48446 3.53264 2.65761C3.37794 2.77058 3.0484 3.10126 2.90818 3.25141C2.2227 3.98373 1.6851 5.04616 1.47789 6.08105C1.44241 6.25789 1.42424 6.42337 1.39416 6.61099C1.27523 7.3575 1.49123 7.28909 1.15374 7.2871C1.03452 7.28654 0.971511 7.2925 0.869895 7.3206C0.579807 7.40064 0.349611 7.63595 0.264741 7.93597C0.152623 8.3325 0.335418 8.6436 0.526729 8.83349C0.765441 9.0705 1.08732 9.06425 1.51195 9.06425H12.5103C13.2248 9.06425 14.128 9.23513 14.422 8.54113C14.6295 8.05093 14.407 7.53462 13.9429 7.34785C13.7153 7.25645 13.5691 7.32514 13.3942 7.28058C13.3579 7.18549 13.3775 6.91272 13.363 6.7813C13.3463 6.62887 13.3289 6.44267 13.2991 6.2999C13.0968 5.33114 12.9211 4.81596 12.3852 3.97379C12.1711 3.63744 11.6594 3.01724 11.3798 2.81429L11.0931 2.57104C10.8921 2.40272 10.293 1.99767 10.0869 1.93381C10.0417 2.00165 9.90295 2.87475 9.87939 3.02434C9.82262 3.38368 9.75791 3.77113 9.68609 4.12366C9.614 4.47648 9.62308 4.93375 9.34605 5.07255C8.98642 5.2528 8.60266 4.96185 8.68696 4.55596C8.7636 4.18696 8.81356 3.82336 8.88196 3.45918C8.98102 2.93038 9.06845 2.32608 9.17262 1.81658C9.18908 1.73625 9.19845 1.63265 9.21718 1.54579C9.24528 1.41551 9.26544 1.38542 9.19391 1.28778C8.85897 0.831073 8.46954 0.849806 8.39943 0.79616L8.39914 0.795593Z" fill="#1C71B7"/>
<path fill-rule="evenodd" clip-rule="evenodd" d="M1.91608 12.7835C1.95667 12.9484 2.06481 13.1835 2.13464 13.3393C2.406 13.9442 2.57857 14.257 2.93196 14.8215C3.15336 15.1752 3.62283 15.7982 3.93024 16.1025C4.03867 16.2101 4.18343 16.3807 4.31172 16.4809C4.38439 16.5376 4.44683 16.5955 4.52035 16.6597C4.96428 17.0471 5.65885 17.4522 6.22994 17.6168C7.15612 17.8839 7.96451 17.805 8.78056 17.4502C10.1007 16.876 11.1609 15.6421 11.8668 14.4432C12.1464 13.968 12.403 13.4207 12.6102 12.8917C12.6868 12.6955 12.6414 12.7991 12.7992 12.6947C13.1177 12.4835 13.3703 11.8931 13.4805 11.4835C13.5579 11.1954 13.7001 10.4585 13.6229 10.1389C13.4535 10.1154 13.1665 10.1213 12.9133 10.1279C12.9448 10.5979 12.8407 11.4162 12.7805 11.7611C12.6828 12.1244 12.4586 12.6484 12.1759 12.836C12.036 12.9286 12.0766 12.8369 12.0082 13.0109C11.8242 13.4806 11.5969 13.966 11.3485 14.3875C10.7221 15.4517 9.7814 16.5467 8.60969 17.0562C7.8856 17.371 7.16833 17.4411 6.34603 17.2038C5.83937 17.0576 5.22286 16.6983 4.82917 16.3546C4.76389 16.2975 4.70825 16.2461 4.6441 16.1959C4.53057 16.107 4.40199 15.9555 4.30548 15.8601C4.0327 15.5899 3.61602 15.037 3.4196 14.7233C3.10624 14.2223 2.95296 13.9447 2.71226 13.408C2.6501 13.2697 2.55416 13.0611 2.51783 12.9149C2.27685 12.8284 2.15933 12.7043 2.03643 12.4934C1.7628 12.0242 1.68446 11.6371 1.6101 11.0878C1.57376 10.7807 1.55219 10.4603 1.53062 10.1344H1.2797C0.857342 10.1344 0.875225 10.0913 0.875508 10.2221C0.876076 10.3941 0.871817 10.5644 0.893673 10.7251C0.977123 11.3441 1.06568 11.7804 1.37365 12.3089C1.51245 12.5465 1.64473 12.6864 1.91636 12.7841L1.91608 12.7835Z" fill="#1C71B7"/>
</svg>
