<svg width="22" height="15" viewBox="0 0 22 15" fill="none" xmlns="http://www.w3.org/2000/svg">
<path d="M0.583313 1.25004C0.583313 0.973773 0.69306 0.708822 0.88841 0.513471C1.08376 0.318121 1.34871 0.208374 1.62498 0.208374H20.375C20.6512 0.208374 20.9162 0.318121 21.1116 0.513471C21.3069 0.708822 21.4166 0.973773 21.4166 1.25004C21.4166 1.52631 21.3069 1.79126 21.1116 1.98661C20.9162 2.18196 20.6512 2.29171 20.375 2.29171H1.62498C1.34871 2.29171 1.08376 2.18196 0.88841 1.98661C0.69306 1.79126 0.583313 1.52631 0.583313 1.25004ZM0.583313 7.53337C0.583313 7.25711 0.69306 6.99215 0.88841 6.7968C1.08376 6.60145 1.34871 6.49171 1.62498 6.49171H20.375C20.6512 6.49171 20.9162 6.60145 21.1116 6.7968C21.3069 6.99215 21.4166 7.25711 21.4166 7.53337C21.4166 7.80964 21.3069 8.07459 21.1116 8.26994C20.9162 8.46529 20.6512 8.57504 20.375 8.57504H1.62498C1.34871 8.57504 1.08376 8.46529 0.88841 8.26994C0.69306 8.07459 0.583313 7.80964 0.583313 7.53337ZM1.62498 12.775C1.34871 12.775 1.08376 12.8848 0.88841 13.0801C0.69306 13.2755 0.583313 13.5404 0.583313 13.8167C0.583313 14.093 0.69306 14.3579 0.88841 14.5533C1.08376 14.7486 1.34871 14.8584 1.62498 14.8584H20.375C20.6512 14.8584 20.9162 14.7486 21.1116 14.5533C21.3069 14.3579 21.4166 14.093 21.4166 13.8167C21.4166 13.5404 21.3069 13.2755 21.1116 13.0801C20.9162 12.8848 20.6512 12.775 20.375 12.775H1.62498Z" fill="#09263D"/>
</svg>
