<svg width="20" height="22" viewBox="0 0 20 22" fill="none" xmlns="http://www.w3.org/2000/svg">
<path d="M3.33331 1.75H13.3333C13.6648 1.75 13.9828 1.8817 14.2172 2.11612C14.4516 2.35054 14.5833 2.66848 14.5833 3V9.2775C15.0062 9.31581 15.4247 9.39323 15.8333 9.50875V3C15.8333 2.33696 15.5699 1.70107 15.1011 1.23223C14.6322 0.763392 13.9964 0.5 13.3333 0.5H3.33331C2.67027 0.5 2.03439 0.763392 1.56555 1.23223C1.0967 1.70107 0.833313 2.33696 0.833313 3V18C0.833313 18.663 1.0967 19.2989 1.56555 19.7678C2.03439 20.2366 2.67027 20.5 3.33331 20.5H8.65456C8.33619 20.1144 8.06082 19.6953 7.83331 19.25H3.33331C3.00179 19.25 2.68385 19.1183 2.44943 18.8839C2.21501 18.6495 2.08331 18.3315 2.08331 18H7.34206C7.2264 17.5914 7.14898 17.1729 7.11081 16.75H2.08331V3C2.08331 2.66848 2.21501 2.35054 2.44943 2.11612C2.68385 1.8817 3.00179 1.75 3.33331 1.75ZM4.58331 3C4.25179 3 3.93385 3.1317 3.69943 3.36612C3.46501 3.60054 3.33331 3.91848 3.33331 4.25V5.5C3.33331 5.83152 3.46501 6.14946 3.69943 6.38388C3.93385 6.6183 4.25179 6.75 4.58331 6.75H12.0833C12.4148 6.75 12.7328 6.6183 12.9672 6.38388C13.2016 6.14946 13.3333 5.83152 13.3333 5.5V4.25C13.3333 3.91848 13.2016 3.60054 12.9672 3.36612C12.7328 3.1317 12.4148 3 12.0833 3H4.58331ZM12.0833 4.25V5.5H4.58331V4.25H12.0833ZM19.5833 16.125C19.5833 17.6168 18.9907 19.0476 17.9358 20.1025C16.8809 21.1574 15.4502 21.75 13.9583 21.75C12.4665 21.75 11.0357 21.1574 9.98084 20.1025C8.92595 19.0476 8.33331 17.6168 8.33331 16.125C8.33331 14.6332 8.92595 13.2024 9.98084 12.1475C11.0357 11.0926 12.4665 10.5 13.9583 10.5C15.4502 10.5 16.8809 11.0926 17.9358 12.1475C18.9907 13.2024 19.5833 14.6332 19.5833 16.125ZM13.3583 13.6675C13.2773 13.6118 13.1831 13.5783 13.0851 13.5702C12.9871 13.5621 12.8887 13.5797 12.7996 13.6213C12.7268 13.6533 12.661 13.6991 12.6058 13.7562C12.4894 13.8756 12.4243 14.0358 12.4246 14.2025V18.0463C12.4238 18.1291 12.4394 18.2113 12.4705 18.2881C12.5016 18.3649 12.5476 18.4348 12.6058 18.4938C12.6629 18.5505 12.7293 18.597 12.8021 18.6312C12.9289 18.6894 13.0728 18.6983 13.2058 18.6562C13.2634 18.6373 13.3181 18.6103 13.3683 18.5763L16.2383 16.6175C16.3256 16.56 16.396 16.4801 16.4421 16.3862C16.4896 16.2917 16.514 16.1872 16.5133 16.0814C16.5127 15.9756 16.487 15.8715 16.4383 15.7775C16.3894 15.685 16.3175 15.6066 16.2296 15.55L13.3583 13.6675Z" fill="#09263D"/>
</svg>
