<svg width="30" height="20" viewBox="0 0 30 20" fill="none" xmlns="http://www.w3.org/2000/svg">
<path d="M29.5 3.1375C29.3493 3.04589 29.1763 2.99744 29 2.99744C28.8237 2.99744 28.6507 3.04589 28.5 3.1375L23 6.275V5.5C23 4.84339 22.8707 4.19321 22.6194 3.58658C22.3681 2.97996 21.9998 2.42876 21.5355 1.96447C21.0712 1.50017 20.52 1.13188 19.9134 0.880602C19.3068 0.629329 18.6566 0.5 18 0.5H2C1.46957 0.5 0.960859 0.710714 0.585786 1.08579C0.210714 1.46086 0 1.96957 0 2.5V14.5C0 15.8261 0.526784 17.0979 1.46447 18.0355C1.92876 18.4998 2.47995 18.8681 3.08658 19.1194C3.69321 19.3707 4.34339 19.5 5 19.5H21C21.5304 19.5 22.0391 19.2893 22.4142 18.9142C22.7893 18.5391 23 18.0304 23 17.5V13.725L28.5 16.8625C28.6523 16.9499 28.8244 16.9972 29 17C29.1759 16.9989 29.3483 16.9515 29.5 16.8625C29.6532 16.777 29.7806 16.6518 29.8686 16.5C29.9566 16.3482 30.002 16.1755 30 16V4C30.002 3.82455 29.9566 3.65181 29.8686 3.50001C29.7806 3.34821 29.6532 3.22297 29.5 3.1375ZM21 17.5H5C4.20536 17.4967 3.44421 17.1796 2.88231 16.6177C2.32042 16.0558 2.00329 15.2946 2 14.5V2.5H18C18.7946 2.50329 19.5558 2.82042 20.1177 3.38231C20.6796 3.94421 20.9967 4.70536 21 5.5V17.5ZM28 14.275L23 11.425V8.575L28 5.725V14.275Z" fill="white"/>
</svg>
